<svg id="Capa_1" data-name="Capa 1" xmlns="http://www.w3.org/2000/svg" viewBox="0 0 1882 377.65"><title>casteaching_sv_entero_bn</title><path d="M525.38,219.07a18.7,18.7,0,0,1-6.38,7,17.2,17.2,0,0,1-9.05,2.45A16.55,16.55,0,0,1,499.41,225c-3.09-2.35-5.43-5.75-7.14-10.44A55.13,55.13,0,0,1,489.82,197a55.2,55.2,0,0,1,2.45-17.57c1.71-4.68,4.05-8.2,7.14-10.43a17.5,17.5,0,0,1,23.1,1.81c3.3,3.51,5.22,8.73,5.85,15.43h42.91c-.11-11.17-2.66-20.86-7.77-29.17A50.62,50.62,0,0,0,542,137.84c-9.15-4.57-20.12-6.81-32.79-6.81q-20.93,0-35.77,8.3a56.16,56.16,0,0,0-22.89,23.32c-5.32,10-8,21.51-8,34.71s2.66,24.8,8,34.7a56.16,56.16,0,0,0,22.89,23.32q14.85,8.31,35.77,8.3c12.78,0,23.74-2.23,32.9-6.81a50.66,50.66,0,0,0,21.4-19.48c5-8.41,7.56-18.32,7.77-29.6H528.36A28.5,28.5,0,0,1,525.38,219.07Z" transform="translate(-11 -9.72)"/><path d="M703.6,156.58a41.4,41.4,0,0,0-11.82-13.41,58.15,58.15,0,0,0-18.63-8.95,89.56,89.56,0,0,0-24.8-3.19c-12.78,0-23.53,2-32.05,6s-15,9.26-19.48,16a43.18,43.18,0,0,0-7.45,21.61h42.48c.63-3.94,2.23-6.92,5-8.83s6.39-2.88,10.75-2.88c4,0,7.35.85,9.9,2.66a8.93,8.93,0,0,1,3.94,7.67v.43a7.11,7.11,0,0,1-3,5.85c-1.92,1.49-5.11,2.66-9.47,3.41s-10.22,1.49-17.46,2.13A90.35,90.35,0,0,0,613,188.2a46.83,46.83,0,0,0-15,7.35,32.49,32.49,0,0,0-10.11,12.24,42.37,42.37,0,0,0-3.62,18.1q0,12.78,5.43,21.08a31.83,31.83,0,0,0,14.8,12.35,55.27,55.27,0,0,0,21.71,4,53.52,53.52,0,0,0,15.33-2A34.35,34.35,0,0,0,654.1,255a38.33,38.33,0,0,0,9.26-11.71h1.06v18.1h43.23V173.19A35.5,35.5,0,0,0,703.6,156.58Zm-41.84,59.19a17.11,17.11,0,0,1-3,10,18.91,18.91,0,0,1-7.56,6.28,22.41,22.41,0,0,1-9.9,2.13,16.31,16.31,0,0,1-9.69-2.77,9.93,9.93,0,0,1-3.72-8.3,11.8,11.8,0,0,1,1.59-6.07,13.19,13.19,0,0,1,5-4.58,26.56,26.56,0,0,1,8.83-2.66c1.81-.32,3.62-.64,5.33-1s3.3-.74,4.79-1.06,3-.85,4.36-1.28a41.73,41.73,0,0,0,3.94-1.49Z" transform="translate(-11 -9.72)"/><path d="M840.94,196.08q-9.59-8.46-29.39-12.14l-26.19-4.68c-4.89-.85-8.19-2.13-9.9-3.73s-2.55-3.4-2.45-5.32c-.1-2.66,1.28-4.79,4.16-6.18a21.92,21.92,0,0,1,10.22-2.23,21.47,21.47,0,0,1,8.41,1.6,15.83,15.83,0,0,1,6.28,4.36,11.86,11.86,0,0,1,2.77,6.81h42.58c-.64-13.62-6.28-24.27-17-32S805,131,786.43,131c-12.24,0-22.78,1.6-31.73,4.9s-15.75,8-20.54,14.26-7.14,13.74-7,22.68c-.11,10.11,3.09,18.42,9.69,24.81s16.39,10.75,29.49,13.09l22.78,4c5,.85,8.73,2,11.07,3.51a6.67,6.67,0,0,1,3.62,5.86c0,2.66-1.38,4.68-4.15,6.17a22.1,22.1,0,0,1-10.54,2.24,23.37,23.37,0,0,1-13-3.41,12.8,12.8,0,0,1-6.17-9.37H724c1.28,13.2,7.45,23.74,18.63,31.83s26.41,12,46.1,12c11.93,0,22.46-1.81,31.73-5.43s16.71-8.83,22-15.65a36.53,36.53,0,0,0,8.2-23.74C850.73,209.28,847.43,201.72,840.94,196.08Z" transform="translate(-11 -9.72)"/><path d="M940.91,226.74c-.86.21-2.24.43-4.16.75a22.27,22.27,0,0,1-4.89.53,13.7,13.7,0,0,1-5-.85,6.13,6.13,0,0,1-2.77-2.67,10,10,0,0,1-1-4.47V101.86H876.92V224.29c-.1,9.05,1.6,16.5,5.22,22.47s9.05,10.43,16.29,13.2,16.07,3.83,26.72,3.3a88.81,88.81,0,0,0,13.63-1.81c3.83-.85,6.7-1.6,8.83-2.24Zm-80.49-94.11v33.53h84.85V132.63Z" transform="translate(-11 -9.72)"/><path d="M1087.4,207.79V197a80.15,80.15,0,0,0-4.58-27.58,55.32,55.32,0,0,0-33.11-34,73.88,73.88,0,0,0-26.4-4.47c-13.31,0-24.81,2.77-34.6,8.3A56.72,56.72,0,0,0,966,162.54c-5.32,9.9-8.09,21.51-8.09,34.82,0,13.84,2.66,25.76,8.09,35.66a54.63,54.63,0,0,0,22.78,22.78c10,5.33,21.83,7.88,35.56,7.88,11.82,0,22.25-1.81,31.2-5.32a52.85,52.85,0,0,0,21.5-15.33,47.7,47.7,0,0,0,10.33-23.21h-42.27A15.5,15.5,0,0,1,1041,226a19.12,19.12,0,0,1-6.92,3.83,25.42,25.42,0,0,1-8.73,1.38,23.5,23.5,0,0,1-11.71-2.77,18.46,18.46,0,0,1-7.45-7.66,23.09,23.09,0,0,1-2.56-11v-2Zm-80.91-35.35a19.43,19.43,0,0,1,7.56-6.49,22.31,22.31,0,0,1,10.32-2.45A22,22,0,0,1,1034.7,166a17.35,17.35,0,0,1,7.24,6.6,18.44,18.44,0,0,1,2.87,9.69h-41.2A18.93,18.93,0,0,1,1006.49,172.44Z" transform="translate(-11 -9.72)"/><path d="M1219.31,156.58a39.93,39.93,0,0,0-11.72-13.41,57.71,57.71,0,0,0-18.73-8.95,88.57,88.57,0,0,0-24.81-3.19c-12.77,0-23.42,2-31.94,6s-15.12,9.26-19.48,16a44.41,44.41,0,0,0-7.56,21.61h42.59a12.16,12.16,0,0,1,5-8.83c2.77-1.92,6.39-2.88,10.75-2.88,4,0,7.35.85,9.9,2.66a8.85,8.85,0,0,1,3.84,7.67v.43a7,7,0,0,1-2.88,5.85c-2,1.49-5.22,2.66-9.58,3.41s-10.11,1.49-17.35,2.13a89.06,89.06,0,0,0-18.53,3.19,48.59,48.59,0,0,0-15.12,7.35,33.27,33.27,0,0,0-10,12.24c-2.45,5-3.62,11.07-3.62,18.1,0,8.52,1.81,15.54,5.32,21.08a32.42,32.42,0,0,0,14.8,12.35,55.44,55.44,0,0,0,21.82,4,54.05,54.05,0,0,0,15.33-2A33,33,0,0,0,1169.8,255a37,37,0,0,0,9.37-11.71h1v18.1h43.33V173.19A34.42,34.42,0,0,0,1219.31,156.58Zm-41.84,59.19a17.05,17.05,0,0,1-2.88,10,19.61,19.61,0,0,1-7.56,6.28,23.16,23.16,0,0,1-10,2.13,16,16,0,0,1-9.58-2.77,9.74,9.74,0,0,1-3.83-8.3,10.91,10.91,0,0,1,1.7-6.07,13.19,13.19,0,0,1,5-4.58,25.87,25.87,0,0,1,8.73-2.66c1.81-.32,3.62-.64,5.32-1s3.3-.74,4.9-1.06,3-.85,4.36-1.28a31.69,31.69,0,0,0,3.84-1.49Z" transform="translate(-11 -9.72)"/><path d="M1323.64,219.07a16.82,16.82,0,0,1-15.44,9.48,16.57,16.57,0,0,1-10.54-3.51,22.7,22.7,0,0,1-7-10.44q-2.55-7-2.55-17.56t2.55-17.57c1.71-4.68,4-8.2,7-10.43a16.58,16.58,0,0,1,10.54-3.52,16.29,16.29,0,0,1,12.56,5.33c3.3,3.51,5.22,8.73,5.86,15.43h42.9c0-11.17-2.66-20.86-7.66-29.17a51.15,51.15,0,0,0-21.51-19.27c-9.26-4.57-20.22-6.81-32.79-6.81-13.94,0-26,2.77-35.88,8.3a56.79,56.79,0,0,0-22.88,23.32c-5.33,10-8,21.51-8,34.71s2.66,24.8,8,34.7a56.79,56.79,0,0,0,22.88,23.32c9.91,5.54,21.94,8.3,35.88,8.3,12.67,0,23.64-2.23,32.9-6.81a50.32,50.32,0,0,0,21.29-19.48c5-8.41,7.67-18.32,7.77-29.6h-42.9A27.07,27.07,0,0,1,1323.64,219.07Z" transform="translate(-11 -9.72)"/><path d="M1512.82,154.35a41.94,41.94,0,0,0-15.65-17.14c-6.71-4.16-14.69-6.18-23.74-6.18-9.47,0-17.67,2.24-24.38,6.92a37.18,37.18,0,0,0-14.48,19.16h-1.38V101.86h-44.5V261.34h46.2V189a24.06,24.06,0,0,1,2.34-10.86,16.29,16.29,0,0,1,6.6-7,18.44,18.44,0,0,1,9.8-2.55q8.94,0,13.73,5.42c3.2,3.73,4.79,8.73,4.69,15v72.39h46.31V179.26C1518.36,169.89,1516.55,161.59,1512.82,154.35Z" transform="translate(-11 -9.72)"/><path d="M1541.14,132.63V261.34h46.21V132.63Z" transform="translate(-11 -9.72)"/><path d="M1735,154.35a42.71,42.71,0,0,0-15.65-17.14c-6.71-4.16-14.59-6.18-23.74-6.18a44.78,44.78,0,0,0-24.81,6.92,36.69,36.69,0,0,0-14.69,19.16h-1.38V132.63h-43.87V261.34h46.21V189a25.61,25.61,0,0,1,2.34-10.86,16.06,16.06,0,0,1,6.49-7,19.12,19.12,0,0,1,9.91-2.55c5.85,0,10.32,1.81,13.62,5.42s4.9,8.73,4.79,15v72.39h46.32V179.26A53.88,53.88,0,0,0,1735,154.35Z" transform="translate(-11 -9.72)"/><path d="M1846.79,132.63v22.46h-1.06a39.42,39.42,0,0,0-7.35-12,36.17,36.17,0,0,0-12-8.73,39.6,39.6,0,0,0-16.82-3.3,47.16,47.16,0,0,0-24.27,6.81c-7.67,4.48-13.84,11.61-18.74,21.3s-7.24,22.35-7.24,37.9c0,14.8,2.34,26.93,6.92,36.09s10.76,16,18.42,20.23a53.5,53.5,0,0,0,41.31,3.94,37.16,37.16,0,0,0,12.45-6.93,27.29,27.29,0,0,0,7.67-11.07h1.38V261c0,7.67-1.91,12.88-5.85,15.76s-8.94,4.36-14.91,4.36a36.41,36.41,0,0,1-9.47-1.17,14.67,14.67,0,0,1-6.92-3.62,11,11,0,0,1-3.41-6.6h-44.61a40,40,0,0,0,8.52,22q7.67,9.58,21.4,15c9.15,3.73,20.23,5.54,33.11,5.54,13.63,0,25.44-2,35.66-6.07s18-9.8,23.64-17.46S1893,271.88,1893,261V132.63Zm-1.8,80.48a24.3,24.3,0,0,1-7,10.22,17.52,17.52,0,0,1-11,3.52,17,17,0,0,1-10.86-3.52c-3-2.23-5.21-5.64-6.81-10.11a47.83,47.83,0,0,1-2.45-16.18,49.65,49.65,0,0,1,2.45-16.4,22.65,22.65,0,0,1,6.81-10.43,16.58,16.58,0,0,1,10.86-3.73,17.1,17.1,0,0,1,11,3.73,23.84,23.84,0,0,1,7,10.43,49.93,49.93,0,0,1,2.44,16.4A47.87,47.87,0,0,1,1845,213.11Z" transform="translate(-11 -9.72)"/><path d="M262.75,261.5H199.81a62.94,62.94,0,0,1,0-125.88h62.94v0L388.62,9.72H262.75v0H199.81C95.53,9.75,11,94.28,11,198.56h0c0,104.28,84.53,188.81,188.81,188.81h62.94v0H388.62L262.75,261.48Z" transform="translate(-11 -9.72)"/><polygon points="251.72 188.84 377.6 251.78 377.6 125.84 251.72 188.84"/></svg>