<?xml version="1.0" encoding="utf-8"?>
<!-- Generator: Adobe Illustrator 23.0.0, SVG Export Plug-In . SVG Version: 6.00 Build 0)  -->
<svg version="1.1" id="Capa_1" xmlns="http://www.w3.org/2000/svg" xmlns:xlink="http://www.w3.org/1999/xlink" x="0px" y="0px"
	 viewBox="0 0 1908 398" style="enable-background:new 0 0 1908 398;" xml:space="preserve">
<style type="text/css">
	.st0{fill:#1BBC9B;}
	.st1{fill:#2D3E50;}
</style>
<path class="st0" d="M261.76,261.78h-62.61c-34.58,0-62.61-28.03-62.61-62.61s28.03-62.61,62.61-62.61h62.61v-0.03L386.98,11.3
	H261.76v0.03h-62.61c-103.74,0-187.83,84.1-187.83,187.83v0C11.31,302.9,95.41,387,199.15,387h62.61v-0.02h125.22L261.76,261.76
	V261.78z"/>
<polygon class="st1" points="261.73,199.17 386.96,261.78 386.96,136.49 "/>
<g>
	<g>
		<path class="st1" d="M523.2,219.96c-1.7,3.07-3.82,5.41-6.36,7c-2.65,1.59-5.62,2.44-9.01,2.44c-4.03,0-7.53-1.17-10.49-3.5
			c-3.07-2.33-5.41-5.72-7.1-10.39c-1.59-4.66-2.44-10.49-2.44-17.49c0-7,0.85-12.83,2.44-17.49c1.7-4.66,4.03-8.16,7.1-10.39
			c2.97-2.33,6.47-3.5,10.49-3.5c5.09,0,9.22,1.8,12.51,5.3c3.29,3.5,5.19,8.69,5.83,15.37h42.72c-0.11-11.13-2.65-20.78-7.74-29.05
			c-4.98-8.27-12.19-14.63-21.41-19.19c-9.12-4.56-20.04-6.78-32.65-6.78c-13.89,0-25.76,2.76-35.62,8.27
			c-9.96,5.51-17.49,13.25-22.79,23.22c-5.3,9.96-7.95,21.41-7.95,34.56c0,13.15,2.65,24.7,7.95,34.56
			c5.3,9.96,12.83,17.7,22.79,23.22c9.86,5.51,21.73,8.27,35.62,8.27c12.72,0,23.64-2.23,32.76-6.78
			c9.22-4.56,16.22-11.03,21.31-19.4c4.98-8.37,7.53-18.23,7.74-29.47h-42.72C525.85,213.17,524.79,216.88,523.2,219.96z"/>
		<path class="st1" d="M700.66,157.73c-2.76-5.09-6.68-9.54-11.77-13.36c-5.09-3.82-11.34-6.78-18.55-8.9
			c-7.31-2.12-15.58-3.18-24.7-3.18c-12.72,0-23.43,2.01-31.91,5.94c-8.48,4.03-14.95,9.22-19.4,15.9
			c-4.45,6.57-6.89,13.78-7.42,21.52h42.3c0.64-3.92,2.23-6.89,4.98-8.8c2.76-1.91,6.36-2.86,10.71-2.86c4.03,0,7.31,0.85,9.86,2.65
			s3.92,4.35,3.92,7.63v0.42c0,2.44-1.06,4.35-2.97,5.83c-1.91,1.48-5.09,2.65-9.44,3.39c-4.45,0.85-10.18,1.48-17.39,2.12
			c-6.57,0.42-12.72,1.59-18.45,3.18c-5.72,1.7-10.71,4.13-14.95,7.31c-4.35,3.18-7.63,7.21-10.07,12.19
			c-2.33,4.98-3.6,11.03-3.6,18.02c0,8.48,1.8,15.48,5.41,20.99c3.5,5.51,8.48,9.65,14.74,12.3c6.25,2.65,13.46,4.03,21.63,4.03
			c5.51,0,10.71-0.64,15.27-2.01c4.66-1.27,8.8-3.39,12.51-6.36c3.6-2.97,6.68-6.89,9.22-11.66h1.06v18.02h43.04v-87.78
			C704.69,168.33,703.31,162.82,700.66,157.73z M659,216.67c0,3.92-1.06,7.21-2.97,9.96c-1.91,2.76-4.45,4.77-7.53,6.25
			c-3.07,1.48-6.36,2.12-9.86,2.12c-3.92,0-7.1-0.95-9.65-2.76c-2.44-1.91-3.71-4.66-3.71-8.27c0-2.23,0.53-4.24,1.59-6.04
			c1.06-1.8,2.76-3.29,4.98-4.56c2.33-1.27,5.19-2.12,8.8-2.65c1.8-0.32,3.6-0.64,5.3-0.95c1.7-0.32,3.29-0.74,4.77-1.06
			c1.59-0.42,2.97-0.85,4.35-1.27c1.38-0.42,2.65-0.95,3.92-1.48V216.67z"/>
		<path class="st1" d="M837.41,197.06c-6.36-5.62-16.11-9.65-29.26-12.09l-26.08-4.66c-4.88-0.85-8.16-2.12-9.86-3.71
			c-1.7-1.7-2.54-3.39-2.44-5.3c-0.11-2.65,1.27-4.77,4.13-6.15c2.86-1.48,6.25-2.23,10.18-2.23c3.07,0,5.83,0.53,8.37,1.59
			c2.54,1.06,4.66,2.44,6.25,4.35c1.59,1.91,2.54,4.13,2.76,6.78h42.4c-0.64-13.57-6.25-24.17-16.96-31.91
			c-10.71-7.63-25.34-11.45-43.78-11.45c-12.19,0-22.69,1.59-31.59,4.88c-8.91,3.18-15.69,7.95-20.46,14.21
			c-4.77,6.15-7.1,13.68-7,22.58c-0.11,10.07,3.07,18.34,9.65,24.7c6.47,6.47,16.33,10.71,29.36,13.04l22.69,4.03
			c4.98,0.85,8.69,2.01,11.03,3.5c2.33,1.38,3.6,3.39,3.6,5.83c0,2.65-1.38,4.66-4.13,6.15c-2.76,1.48-6.25,2.23-10.49,2.23
			c-5.19,0-9.54-1.17-12.93-3.39c-3.5-2.12-5.51-5.3-6.15-9.33h-45.69c1.27,13.15,7.42,23.64,18.55,31.7
			c11.02,8.06,26.29,11.98,45.9,11.98c11.87,0,22.37-1.8,31.59-5.41c9.33-3.71,16.64-8.8,21.94-15.58
			c5.41-6.68,8.16-14.52,8.16-23.64C847.16,210.21,843.88,202.68,837.41,197.06z"/>
		<path class="st1" d="M936.95,227.59c-0.85,0.21-2.23,0.42-4.13,0.74c-1.91,0.42-3.5,0.53-4.88,0.53c-2.01,0-3.6-0.32-4.98-0.85
			c-1.27-0.64-2.12-1.48-2.76-2.65c-0.64-1.27-0.95-2.76-0.95-4.45V103.24h-46.01v121.91c-0.11,9.01,1.59,16.43,5.19,22.37
			c3.6,6.04,9.01,10.39,16.22,13.15c7.21,2.76,16.01,3.82,26.61,3.29c5.19-0.32,9.75-0.95,13.57-1.8c3.82-0.85,6.68-1.59,8.8-2.23
			L936.95,227.59z M856.81,133.88v33.39h84.49v-33.39H856.81z"/>
		<path class="st1" d="M1082.82,208.72v-10.71c0-10.18-1.59-19.29-4.56-27.46c-2.97-8.16-7.31-15.05-12.83-20.78
			c-5.62-5.62-12.3-9.96-20.14-13.04c-7.85-2.97-16.54-4.45-26.29-4.45c-13.25,0-24.7,2.76-34.45,8.27
			c-9.75,5.51-17.28,13.15-22.58,23.11c-5.3,9.86-8.06,21.41-8.06,34.67c0,13.78,2.65,25.65,8.06,35.51
			c5.3,9.86,12.83,17.39,22.69,22.69c9.96,5.3,21.73,7.84,35.41,7.84c11.77,0,22.16-1.8,31.06-5.3c8.9-3.6,16.01-8.69,21.41-15.27
			c5.41-6.47,8.8-14.2,10.28-23.11h-42.09c-0.85,2.44-2.33,4.45-4.13,6.15c-1.91,1.7-4.24,2.97-6.89,3.82
			c-2.65,0.95-5.51,1.38-8.69,1.38c-4.56,0-8.48-0.95-11.66-2.76c-3.18-1.8-5.72-4.35-7.42-7.63c-1.7-3.18-2.54-6.89-2.54-10.92
			v-2.01H1082.82z M1002.26,173.53c1.91-2.76,4.45-4.98,7.53-6.47c3.07-1.59,6.57-2.44,10.28-2.44c3.82,0,7.21,0.85,10.28,2.44
			c3.07,1.48,5.41,3.71,7.21,6.57c1.8,2.76,2.76,6.04,2.86,9.65h-41.03C999.5,179.57,1000.45,176.39,1002.26,173.53z"/>
		<path class="st1" d="M1214.17,157.73c-2.65-5.09-6.57-9.54-11.66-13.36c-5.09-3.82-11.34-6.78-18.66-8.9
			c-7.21-2.12-15.48-3.18-24.7-3.18c-12.72,0-23.32,2.01-31.8,5.94c-8.59,4.03-15.05,9.22-19.4,15.9
			c-4.45,6.57-6.89,13.78-7.53,21.52h42.4c0.53-3.92,2.23-6.89,4.98-8.8c2.76-1.91,6.36-2.86,10.71-2.86c4.03,0,7.31,0.85,9.86,2.65
			c2.54,1.8,3.82,4.35,3.82,7.63v0.42c0,2.44-0.95,4.35-2.86,5.83c-2.01,1.48-5.19,2.65-9.54,3.39c-4.35,0.85-10.07,1.48-17.28,2.12
			c-6.57,0.42-12.83,1.59-18.45,3.18c-5.72,1.7-10.71,4.13-15.05,7.31c-4.24,3.18-7.53,7.21-9.96,12.19
			c-2.44,4.98-3.6,11.03-3.6,18.02c0,8.48,1.8,15.48,5.3,20.99c3.6,5.51,8.48,9.65,14.74,12.3c6.25,2.65,13.46,4.03,21.73,4.03
			c5.51,0,10.6-0.64,15.27-2.01c4.66-1.27,8.8-3.39,12.4-6.36c3.71-2.97,6.78-6.89,9.33-11.66h0.95v18.02h43.15v-87.78
			C1218.3,168.33,1216.93,162.82,1214.17,157.73z M1172.51,216.67c0,3.92-0.95,7.21-2.86,9.96c-2.01,2.76-4.45,4.77-7.53,6.25
			c-3.18,1.48-6.47,2.12-9.96,2.12c-3.82,0-7.1-0.95-9.54-2.76c-2.54-1.91-3.82-4.66-3.82-8.27c0-2.23,0.53-4.24,1.7-6.04
			c1.06-1.8,2.76-3.29,4.98-4.56c2.23-1.27,5.2-2.12,8.69-2.65c1.8-0.32,3.6-0.64,5.3-0.95c1.7-0.32,3.29-0.74,4.88-1.06
			c1.48-0.42,2.97-0.85,4.35-1.27c1.38-0.42,2.65-0.95,3.82-1.48V216.67z"/>
		<path class="st1" d="M1318.06,219.96c-1.59,3.07-3.71,5.41-6.36,7c-2.65,1.59-5.62,2.44-9.01,2.44c-4.03,0-7.53-1.17-10.49-3.5
			c-2.97-2.33-5.3-5.72-7-10.39c-1.7-4.66-2.54-10.49-2.54-17.49c0-7,0.85-12.83,2.54-17.49c1.7-4.66,4.03-8.16,7-10.39
			c2.97-2.33,6.47-3.5,10.49-3.5c5.09,0,9.33,1.8,12.51,5.3c3.29,3.5,5.19,8.69,5.83,15.37h42.72c0-11.13-2.65-20.78-7.63-29.05
			c-5.09-8.27-12.19-14.63-21.41-19.19c-9.22-4.56-20.14-6.78-32.65-6.78c-13.89,0-25.87,2.76-35.73,8.27
			c-9.86,5.51-17.49,13.25-22.79,23.22c-5.3,9.96-7.95,21.41-7.95,34.56c0,13.15,2.65,24.7,7.95,34.56
			c5.3,9.96,12.93,17.7,22.79,23.22c9.86,5.51,21.84,8.27,35.73,8.27c12.61,0,23.53-2.23,32.76-6.78
			c9.12-4.56,16.22-11.03,21.2-19.4c4.98-8.37,7.63-18.23,7.74-29.47h-42.72C1320.71,213.17,1319.75,216.88,1318.06,219.96z"/>
		<path class="st1" d="M1506.44,155.5c-3.71-7.31-8.91-12.93-15.58-17.07c-6.68-4.13-14.63-6.15-23.64-6.15
			c-9.44,0-17.6,2.23-24.28,6.89c-6.78,4.56-11.55,10.92-14.42,19.08h-1.38v-55.02h-44.31v158.8h46.01v-72.09
			c0-4.24,0.85-7.84,2.33-10.81c1.59-3.07,3.71-5.41,6.57-7c2.76-1.7,6.04-2.54,9.75-2.54c5.94,0,10.49,1.8,13.68,5.41
			c3.18,3.71,4.77,8.69,4.66,14.95v72.09h46.11v-81.73C1511.95,170.98,1510.15,162.71,1506.44,155.5z"/>
		<path class="st1" d="M1534.64,133.88v128.17h46.01V133.88H1534.64z"/>
		<path class="st1" d="M1727.68,155.5c-3.71-7.21-8.9-12.93-15.58-17.07c-6.68-4.13-14.52-6.15-23.64-6.15
			c-9.44,0-17.6,2.33-24.7,6.89c-7,4.66-11.87,11.03-14.63,19.08h-1.38v-24.38h-43.67v128.17h46.01v-72.09
			c0.11-4.24,0.85-7.84,2.33-10.81c1.48-3.07,3.71-5.41,6.47-7c2.86-1.7,6.15-2.54,9.86-2.54c5.83,0,10.28,1.8,13.57,5.41
			c3.29,3.71,4.88,8.69,4.77,14.95v72.09h46.11v-81.73C1733.19,170.98,1731.39,162.82,1727.68,155.5z"/>
		<path class="st1" d="M1838.99,133.88v22.37h-1.06c-1.59-4.35-4.13-8.27-7.32-11.98c-3.18-3.6-7.21-6.47-11.98-8.69
			c-4.77-2.23-10.39-3.29-16.75-3.29c-8.38,0-16.43,2.23-24.17,6.78c-7.63,4.45-13.78,11.56-18.66,21.2
			c-4.77,9.65-7.21,22.26-7.21,37.74c0,14.73,2.33,26.82,6.89,35.94c4.56,9.22,10.71,15.9,18.34,20.14
			c7.63,4.24,16.01,6.36,25.12,6.36c5.83,0,11.13-0.85,16.01-2.44c4.77-1.59,8.91-3.92,12.4-6.89c3.5-3.07,6.04-6.78,7.63-11.02
			h1.38v21.63c0,7.63-1.91,12.83-5.83,15.69c-3.92,2.86-8.9,4.35-14.84,4.35c-3.5,0-6.68-0.42-9.44-1.17
			c-2.86-0.74-5.19-1.91-6.89-3.6c-1.8-1.7-2.97-3.82-3.39-6.57h-44.42c0.64,8.27,3.5,15.58,8.48,21.94
			c5.09,6.36,12.19,11.34,21.31,14.95c9.12,3.71,20.14,5.51,32.97,5.51c13.57,0,25.34-2.01,35.51-6.04
			c10.07-4.03,17.92-9.75,23.53-17.39c5.62-7.63,8.38-16.86,8.38-27.67V133.88H1838.99z M1837.19,214.02
			c-1.7,4.35-4.03,7.74-7,10.18c-3.07,2.33-6.68,3.5-10.92,3.5c-4.24,0-7.84-1.17-10.81-3.5c-2.97-2.23-5.19-5.62-6.79-10.07
			c-1.59-4.45-2.44-9.75-2.44-16.11c0-6.36,0.85-11.77,2.44-16.33c1.59-4.56,3.82-7.95,6.79-10.39c2.97-2.44,6.57-3.71,10.81-3.71
			c4.24,0,7.85,1.27,10.92,3.71c2.97,2.44,5.3,5.83,7,10.39c1.59,4.56,2.44,9.96,2.44,16.33
			C1839.63,204.27,1838.78,209.57,1837.19,214.02z"/>
	</g>
</g>
<path class="st0" d="M261.68,262.2h-62.67c-34.61,0-62.67-28.06-62.67-62.67s28.06-62.67,62.67-62.67h62.67v-0.03L387.01,11.49
	H261.68v0.03h-62.67C95.17,11.52,11,95.7,11,199.53v0c0,103.83,84.17,188.01,188.01,188.01h62.67v-0.02h125.34L261.68,262.18V262.2z
	"/>
<polygon class="st1" points="261.65,199.53 386.99,262.2 386.99,136.8 "/>
</svg>
